<?xml version="1.0" encoding="UTF-8" standalone="no"?>
<!-- Created with Inkscape (http://www.inkscape.org/) -->

<svg
   width="120.4mm"
   height="59.85mm"
   viewBox="0 0 120.4 59.85"
   version="1.1"
   id="svg444"
   xml:space="preserve"
   inkscape:export-filename="fig-summary.svg"
   inkscape:export-xdpi="200"
   inkscape:export-ydpi="200"
   inkscape:version="1.2.1 (9c6d41e410, 2022-07-14)"
   sodipodi:docname="fig-summary.svg"
   xmlns:inkscape="http://www.inkscape.org/namespaces/inkscape"
   xmlns:sodipodi="http://sodipodi.sourceforge.net/DTD/sodipodi-0.dtd"
   xmlns="http://www.w3.org/2000/svg"
   xmlns:svg="http://www.w3.org/2000/svg"><sodipodi:namedview
     id="namedview446"
     pagecolor="#ffffff"
     bordercolor="#eeeeee"
     borderopacity="1"
     inkscape:showpageshadow="0"
     inkscape:pageopacity="0"
     inkscape:pagecheckerboard="false"
     inkscape:deskcolor="#505050"
     inkscape:document-units="mm"
     showgrid="false"
     inkscape:zoom="2.828"
     inkscape:cx="164.4"
     inkscape:cy="135.4"
     inkscape:window-width="1920"
     inkscape:window-height="1046"
     inkscape:window-x="-11"
     inkscape:window-y="-11"
     inkscape:window-maximized="1"
     inkscape:current-layer="layer1" /><defs
     id="defs441"><inkscape:path-effect
       effect="bspline"
       id="path-effect1270-5-6-1"
       is_visible="true"
       lpeversion="1"
       weight="33.33"
       steps="2"
       helper_size="0"
       apply_no_weight="true"
       apply_with_weight="true"
       only_selected="false" /><inkscape:path-effect
       effect="bspline"
       id="path-effect1338-4-8"
       is_visible="true"
       lpeversion="1"
       weight="33.33"
       steps="2"
       helper_size="0"
       apply_no_weight="true"
       apply_with_weight="true"
       only_selected="false" /><inkscape:path-effect
       effect="bspline"
       id="path-effect1362-15-2"
       is_visible="true"
       lpeversion="1"
       weight="33.33"
       steps="2"
       helper_size="0"
       apply_no_weight="true"
       apply_with_weight="true"
       only_selected="false" /><marker
       style="overflow:visible"
       id="RoundedArrow-6"
       refX="0"
       refY="0"
       orient="auto-start-reverse"
       inkscape:stockid="RoundedArrow"
       markerWidth="6.135"
       markerHeight="5.931"
       viewBox="0 0 6.135 5.931"
       inkscape:isstock="true"
       inkscape:collect="always"
       preserveAspectRatio="xMidYMid"><path
         transform="scale(0.7)"
         d="m -0.2111,-4.106 6.4221,3.2116 a 1,1 90 0 1 0,1.7888 L -0.2111,4.106 A 1.236,1.236 31.72 0 1 -2,3 v -6 a 1.236,1.236 148.3 0 1 1.7889,-1.106 z"
         style="fill:context-stroke;fill-rule:evenodd;stroke:none"
         id="path1367-1" /></marker></defs><g
     inkscape:label="Layer 1"
     inkscape:groupmode="layer"
     id="layer1"
     transform="translate(-14.8,-4.04)"><circle
       style="display:inline;fill:#9e9890;fill-opacity:1;fill-rule:evenodd;stroke:#9e9890;stroke-width:0.265;stroke-linecap:round;stroke-dasharray:none;stroke-opacity:1"
       id="path527-8"
       cx="26.87"
       cy="36.51"
       r="7.978" /><path
       id="path1147-8-4"
       style="display:inline;fill:none;stroke:#6b6560;stroke-width:0.265;stroke-linecap:butt;stroke-linejoin:miter;stroke-dasharray:none;stroke-opacity:1"
       d="m 16.33,51.9 c 1.96,1.27 5.92,-0.39 8.03,-3.45 2.1,-3.04 2.33,-7.5 2.48,-11.83 0,0 0,-0.14 0,-0.14 0,0 0.14,0 0.14,-0.12 3.97,-1.74 8.04,-3.53 10.15,-6.59 2.11,-3.04 2.18,-7.34 0.29,-8.66 v 0 0 0 0 0 c -1.97,-1.31 -5.94,0.36 -8.08,3.44 -2.08,2.99 -2.29,7.48 -2.46,11.8 0,0 0,0.13 0,0.13 0,0 -0.13,0 -0.14,0.14 -3.57,1.52 -7.18,3.11 -9.4,5.63 -0.28,0.28 -0.5,0.61 -0.75,0.94 -0.2,0.27 -0.37,0.56 -0.53,0.85 -1.58,3 -1.48,6.65 0.22,7.86 v 0 0 0 0 z M 26.74,36.54 V 36.4 c 0,0 0,0 0.13,0 v 0.14 c 0,0 0,0 -0.13,0 z" /><circle
       style="display:inline;fill:#6b6560;fill-opacity:1;fill-rule:evenodd;stroke:#6b6560;stroke-width:0.265;stroke-linecap:round;stroke-dasharray:none;stroke-opacity:1"
       id="circle529-7"
       cx="26.87"
       cy="36.51"
       r="2.394" /><path
       style="display:inline;fill:#6b6560;fill-opacity:1;stroke:#6b6560;stroke-width:0.265029;stroke-linecap:round;stroke-linejoin:round;stroke-dasharray:0.265029, 0.530056;stroke-dashoffset:0;stroke-opacity:1"
       d="M 27.53,36.35 H 122.3"
       id="path1382-5-5"
       inkscape:export-filename="fig-2.pdf"
       inkscape:export-xdpi="200"
       inkscape:export-ydpi="200" /><g
       id="g1389-5-9"
       transform="matrix(0.1982,0,0,0.3475,114.2,66.56)"
       style="display:inline;stroke:#1e5b5e;stroke-width:1.00992;stroke-dasharray:none;stroke-opacity:1"><path
         style="fill:none;stroke:#1e5b5e;stroke-width:1.00992;stroke-linecap:butt;stroke-linejoin:miter;stroke-dasharray:none;stroke-opacity:1"
         d="m -270.4,-86.33 c -5.3,8.36 -10.6,16.77 -15.9,12.38 -5.3,-4.38 -10.7,-21.48 -16.1,-25.83 -5.4,-4.32 -10.7,4.14 -16.1,12.65"
         id="path1268-2-0-5"
         inkscape:original-d="m -270.4,-86.33 c -5.2,8.4 -10.5,16.8 -15.8,25.1 -5.4,-17.1 -10.8,-34.2 -16.2,-51.37 -5.3,8.5 -10.7,16.97 -16.1,25.47"
         inkscape:path-effect="#path-effect1270-5-6-1" /><path
         style="fill:none;stroke:#1e5b5e;stroke-width:1.00992;stroke-linecap:butt;stroke-linejoin:miter;stroke-dasharray:none;stroke-opacity:1"
         d="m -222,-86.32 c -5.3,8.36 -10.6,16.77 -15.9,12.38 -5.3,-4.38 -10.7,-21.48 -16.1,-25.67 -5.5,-4.19 -10.9,4.52 -16.4,13.34"
         id="path1334-7-2"
         inkscape:original-d="m -222,-86.32 c -5.2,8.4 -10.5,16.8 -15.8,25.1 -5.4,-17.1 -10.8,-34.2 -16.2,-51.38 -5.5,8.8 -10.9,17.52 -16.4,26.33"
         inkscape:path-effect="#path-effect1338-4-8"
         sodipodi:nodetypes="cccc" /><path
         style="fill:none;stroke:#1e5b5e;stroke-width:1.00992;stroke-linecap:butt;stroke-linejoin:miter;stroke-dasharray:none;stroke-opacity:1"
         d="m -173.7,-86.33 c -5.3,8.36 -10.6,16.77 -15.9,12.38 -5.3,-4.38 -10.7,-21.48 -16.1,-25.71 -5.4,-4.24 -10.9,4.6 -16.3,13.38"
         id="path1358-9-1"
         inkscape:original-d="m -173.7,-86.33 c -5.2,8.4 -10.5,16.8 -15.8,25.1 -5.4,-17.1 -10.8,-34.2 -16.2,-51.37 -5.4,8.7 -10.9,17.52 -16.3,26.32"
         inkscape:path-effect="#path-effect1362-15-2"
         sodipodi:nodetypes="cccc" /></g><path
       style="fill:none;stroke:#6b6560;stroke-width:0.265;stroke-dasharray:none;stroke-opacity:1"
       d="m 111.7,31.89 c 1.8,1.6 2.4,4.3 1.5,6.6 -0.3,0.7 -0.8,1.4 -1.5,2 m -1.4,-7.6 c 1,0.9 1.6,2.3 1.5,3.7 0,1.2 -0.7,2.2 -1.5,3 m -1,-5.7 c 0.7,0.7 1.2,1.6 1,2.5 0,0.8 -0.4,1.5 -0.9,2.1 m -10.24,3.9 c 0.4,0.6 0,0.4 -0.1,1.1 0.1,0.6 0.5,1.3 0.4,2 -0.2,1.3 1.64,1.5 2.54,1.1 1,-0.2 2.1,0.3 2.5,1.3 0.5,1 -0.3,2 -0.3,3.1 0.1,1 1.5,0.7 2.2,0.6 0.6,-0.1 1.2,-0.2 1.9,-0.2 1.2,0 2.4,-0.1 3.6,0.2 0.8,0 1.5,0.2 2.2,0.2 0.7,0 1.2,-0.1 0.7,-0.9 -0.7,-1.1 -1.2,-2.3 -1.4,-3.6 -0.4,-1.4 -0.4,-3 0.6,-4.2 0.9,-1.1 1.7,-2.1 2.2,-3.4 0.8,-1.7 1,-3.6 0.7,-5.4 -0.4,-1.4 -0.9,-2.93 -1.9,-4.03 -0.4,-0.5 -1,-1 -1.6,-1.4 -1.4,-1 -3.2,-1.3 -5,-1.2 -1.3,0 -2.6,-0.1 -3.9,0.4 -2,0.6 -3.6,2.2 -4.54,4.13 -0.2,0.3 -0.1,0.3 -0.2,0.5 -0.3,0.8 -0.3,1.9 -0.2,2.8 0.3,0.7 0.2,1.5 -0.2,2.2 -0.3,0.9 -2.2,2 -0.9,2.8 0.2,0.1 0.4,0.5 0.4,0.7 0.1,0.1 0.2,1 0.3,1.2"
       id="path10921-6"
       sodipodi:nodetypes="sssccccssscscssccscsssssssssscssscs" /><text
       xml:space="preserve"
       style="font-style:normal;font-variant:normal;font-weight:normal;font-stretch:normal;font-size:2.8222px;line-height:1.25;font-family:Garamond;-inkscape-font-specification:Garamond;letter-spacing:0px;word-spacing:0px;fill:#6b6560;fill-opacity:1;stroke-width:0.2646"
       x="43.74"
       y="48.95"
       id="text19271"><tspan
         sodipodi:role="line"
         id="tspan19269"
         style="font-style:normal;font-variant:normal;font-weight:normal;font-stretch:normal;font-size:2.8222px;font-family:'DM Sans';-inkscape-font-specification:'DM Sans';text-align:center;text-anchor:middle;fill:#6b6560;fill-opacity:1;stroke-width:0.2646"
         x="43.74"
         y="48.95">Universal Ground State</tspan><tspan
         sodipodi:role="line"
         style="font-style:normal;font-variant:normal;font-weight:normal;font-stretch:normal;font-size:2.8222px;font-family:'DM Sans';-inkscape-font-specification:'DM Sans';text-align:center;text-anchor:middle;fill:#6b6560;fill-opacity:1;stroke-width:0.2646"
         x="43.74"
         y="52.48"
         id="tspan19273">(Still · Timeless · Unbounded)</tspan></text><text
       xml:space="preserve"
       style="font-style:normal;font-variant:normal;font-weight:normal;font-stretch:normal;font-size:2.8222px;line-height:1.25;font-family:Garamond;-inkscape-font-specification:Garamond;letter-spacing:0px;word-spacing:0px;fill:#9e958e;fill-opacity:1;stroke-width:0.2646"
       x="33.5"
       y="6.947"
       id="text19271-5"><tspan
         sodipodi:role="line"
         style="font-style:normal;font-variant:normal;font-weight:normal;font-stretch:normal;font-size:2.8222px;font-family:'DM Sans';-inkscape-font-specification:'DM Sans';text-align:center;text-anchor:middle;fill:#9e958e;fill-opacity:1;stroke-width:0.2646"
         x="33.5"
         y="6.947"
         id="tspan19273-6">Cyclical fluctuation of </tspan><tspan
         sodipodi:role="line"
         style="font-style:normal;font-variant:normal;font-weight:normal;font-stretch:normal;font-size:2.8222px;font-family:'DM Sans';-inkscape-font-specification:'DM Sans';text-align:center;text-anchor:middle;fill:#9e958e;fill-opacity:1;stroke-width:0.2646"
         x="33.5"
         y="10.47"
         id="tspan38588">Universal Ground State</tspan></text><text
       xml:space="preserve"
       style="font-style:normal;font-variant:normal;font-weight:normal;font-stretch:normal;font-size:2.8222px;line-height:1.25;font-family:'DM Sans';-inkscape-font-specification:'DM Sans';letter-spacing:0px;word-spacing:0px;fill:#6b6560;fill-opacity:1;stroke-width:0.2646"
       x="31.47"
       y="15.61"
       id="text30266"><tspan
         sodipodi:role="line"
         id="tspan30264"
         style="font-style:normal;font-variant:normal;font-weight:normal;font-stretch:normal;font-size:2.8222px;font-family:'DM Sans';-inkscape-font-specification:'DM Sans';text-align:center;text-anchor:middle;fill:#6b6560;fill-opacity:1;stroke-width:0.2646"
         x="31.47"
         y="15.61">Fluctuation</tspan><tspan
         sodipodi:role="line"
         style="font-style:normal;font-variant:normal;font-weight:normal;font-stretch:normal;font-size:2.8222px;font-family:'DM Sans';-inkscape-font-specification:'DM Sans';text-align:center;text-anchor:middle;fill:#6b6560;fill-opacity:1;stroke-width:0.2646"
         x="31.47"
         y="19.14"
         id="tspan30268">(creation)</tspan></text><text
       xml:space="preserve"
       style="font-style:normal;font-variant:normal;font-weight:normal;font-stretch:normal;font-size:2.8222px;line-height:1.25;font-family:'DM Sans';-inkscape-font-specification:'DM Sans';letter-spacing:0px;word-spacing:0px;fill:#6b6560;fill-opacity:1;stroke-width:0.2646"
       x="94.64"
       y="21.37"
       id="text30266-8"><tspan
         sodipodi:role="line"
         id="tspan30264-3"
         style="font-style:normal;font-variant:normal;font-weight:normal;font-stretch:normal;font-size:2.8222px;font-family:'DM Sans';-inkscape-font-specification:'DM Sans';text-align:center;text-anchor:middle;fill:#6b6560;fill-opacity:1;stroke-width:0.2646"
         x="94.64"
         y="21.37">Perception</tspan><tspan
         sodipodi:role="line"
         style="font-style:normal;font-variant:normal;font-weight:normal;font-stretch:normal;font-size:2.8222px;font-family:'DM Sans';-inkscape-font-specification:'DM Sans';text-align:center;text-anchor:middle;fill:#6b6560;fill-opacity:1;stroke-width:0.2646"
         x="94.64"
         y="24.9"
         id="tspan30268-2">(measurement)</tspan></text><text
       xml:space="preserve"
       style="font-style:normal;font-variant:normal;font-weight:normal;font-stretch:normal;font-size:2.8222px;line-height:1.25;font-family:'DM Sans';-inkscape-font-specification:'DM Sans';letter-spacing:0px;word-spacing:0px;fill:#1e5b5e;fill-opacity:1;stroke-width:0.2646"
       x="63.39"
       y="21.05"
       id="text30266-8-4"><tspan
         sodipodi:role="line"
         style="font-style:normal;font-variant:normal;font-weight:normal;font-stretch:normal;font-size:2.8222px;font-family:'DM Sans';-inkscape-font-specification:'DM Sans';text-align:center;text-anchor:middle;fill:#1e5b5e;fill-opacity:1;stroke-width:0.2646"
         x="63.39"
         y="21.05"
         id="tspan30268-2-0">Energy</tspan><tspan
         sodipodi:role="line"
         style="font-style:normal;font-variant:normal;font-weight:normal;font-stretch:normal;font-size:2.8222px;font-family:'DM Sans';-inkscape-font-specification:'DM Sans';text-align:center;text-anchor:middle;fill:#1e5b5e;fill-opacity:1;stroke-width:0.2646"
         x="63.39"
         y="24.58"
         id="tspan39228">transmission</tspan></text><path
       style="display:inline;fill:none;stroke:#1e5b5e;stroke-width:0.265007;stroke-linecap:butt;stroke-linejoin:miter;stroke-dasharray:none;stroke-opacity:1;marker-start:url(#RoundedArrow-6)"
       d="M 68.59,27.16 H 57.28"
       id="path2977" /><text
       xml:space="preserve"
       style="font-style:normal;font-variant:normal;font-weight:normal;font-stretch:normal;font-size:2.8222px;line-height:1.25;font-family:'DM Sans';-inkscape-font-specification:'DM Sans';letter-spacing:0px;word-spacing:0px;fill:#6b6560;fill-opacity:1;stroke-width:0.2646"
       x="121.6"
       y="21.35"
       id="text37886"><tspan
         sodipodi:role="line"
         id="tspan37882"
         style="font-style:normal;font-variant:normal;font-weight:normal;font-stretch:normal;font-size:2.8222px;font-family:'DM Sans';-inkscape-font-specification:'DM Sans';text-align:center;text-anchor:middle;fill:#6b6560;fill-opacity:1;stroke-width:0.2646"
         x="121.6"
         y="21.35">Memory &amp; Response</tspan><tspan
         sodipodi:role="line"
         style="font-style:normal;font-variant:normal;font-weight:normal;font-stretch:normal;font-size:2.8222px;font-family:'DM Sans';-inkscape-font-specification:'DM Sans';text-align:center;text-anchor:middle;fill:#6b6560;fill-opacity:1;stroke-width:0.2646"
         x="121.6"
         y="24.88"
         id="tspan37884">(evolution)</tspan></text><text
       xml:space="preserve"
       style="font-size:3.5278px;line-height:1.25;font-family:Cormorant;-inkscape-font-specification:Cormorant;letter-spacing:0px;word-spacing:0px;fill:#1e5b5e;fill-opacity:1;stroke-width:0.2646"
       x="39.09"
       y="63.04"
       id="text37890"><tspan
         sodipodi:role="line"
         id="tspan37888"
         style="font-style:italic;font-variant:normal;font-weight:normal;font-stretch:normal;font-size:3.5278px;font-family:'DM Sans';-inkscape-font-specification:'DM Sans Italic';fill:#1e5b5e;fill-opacity:1;stroke-width:0.2646"
         x="39.09"
         y="63.04">Consciousness = Capacity to Perceive</tspan></text><path
       style="fill:#6b6560;fill-opacity:1;stroke:#6b6560;stroke-width:0.265;stroke-linecap:butt;stroke-linejoin:miter;stroke-dasharray:none;stroke-opacity:1;marker-end:url(#RoundedArrow-6)"
       d="m 37.12,37.93 5.09,6.9"
       id="path38655" /></g></svg>
